<svg 
 xmlns="http://www.w3.org/2000/svg"
 xmlns:xlink="http://www.w3.org/1999/xlink"
 width="16px" height="24px">
<path fill-rule="evenodd"  fill="rgb(43, 43, 43)"
 d="M15.519,24.000 L0.481,24.000 C0.215,24.000 -0.000,23.777 -0.000,23.503 L-0.000,0.497 C-0.000,0.222 0.215,-0.000 0.481,-0.000 L15.519,-0.000 C15.785,-0.000 16.000,0.222 16.000,0.497 L16.000,23.503 C16.000,23.777 15.785,24.000 15.519,24.000 ZM15.038,0.994 L0.961,0.994 L0.961,23.005 L15.038,23.005 L15.038,23.005 L15.038,0.994 ZM8.000,14.104 C4.932,14.104 2.436,11.522 2.436,8.348 C2.436,5.175 4.932,2.592 8.000,2.592 C11.068,2.592 13.564,5.174 13.564,8.348 C13.564,11.522 11.068,14.104 8.000,14.104 ZM8.000,3.587 C5.462,3.587 3.397,5.723 3.397,8.348 C3.397,10.973 5.462,13.109 8.000,13.109 C10.538,13.109 12.602,10.973 12.602,8.348 C12.602,5.723 10.538,3.587 8.000,3.587 ZM8.000,9.503 C7.384,9.503 6.884,8.985 6.884,8.348 C6.884,7.712 7.384,7.194 8.000,7.194 C8.615,7.194 9.116,7.712 9.116,8.348 C9.116,8.985 8.615,9.503 8.000,9.503 ZM8.000,14.935 C9.822,14.935 11.305,16.469 11.305,18.354 C11.305,20.239 9.822,21.772 8.000,21.772 C6.177,21.772 4.695,20.239 4.695,18.354 C4.695,16.469 6.177,14.935 8.000,14.935 ZM8.000,20.778 C9.292,20.778 10.343,19.690 10.343,18.354 C10.343,17.017 9.292,15.929 8.000,15.929 C6.708,15.929 5.656,17.017 5.656,18.354 C5.656,19.690 6.708,20.778 8.000,20.778 ZM8.000,17.491 C8.460,17.491 8.834,17.878 8.834,18.354 C8.834,18.829 8.460,19.216 8.000,19.216 C7.540,19.216 7.166,18.829 7.166,18.354 C7.166,17.878 7.540,17.491 8.000,17.491 Z"/>
</svg>