<?xml version="1.0" encoding="utf-8"?>
<!-- Generator: Adobe Illustrator 21.1.0, SVG Export Plug-In . SVG Version: 6.00 Build 0)  -->
<svg version="1.1" id="Слой_1" xmlns="http://www.w3.org/2000/svg" xmlns:xlink="http://www.w3.org/1999/xlink" x="0px" y="0px"
	 viewBox="0 0 600 600" style="enable-background:new 0 0 600 600;" xml:space="preserve">
<style type="text/css">
	.st0{fill:#2B2B2B;}
</style>
<g>
	<path class="st0" d="M429.9,75.2h-37.3V32.9V20.2v-2.6v-7.2V7.9h-9.7h-2.6h-64h-2.6H304h-0.1v2.5h-0.1v64.7h-39.5h-9.7v0.3h-0.5
		v115.2l-102.9,28h-1.3v1.7v0.2v3.3v9v334.1v4.5v1.1v1.3v1.5v0.4V591l68.1,10.9l223.6-6v-23.8l0.5-0.1v-0.7c0.1-0.1,0.1-0.1,0.2-0.2
		c0-0.4,0-0.7,0-1c0-0.4,0-0.7,0-1V566V100.4V87.5v-2.6v-9.5v-0.2H429.9z M217.2,575.8l-47.3-9.2V251l39.9,10.3V568h12.3h7.8V259
		l187.3-5.2v312.9c-14.2,1.8-33.7,3.8-56.7,4.4C290.5,573.4,222.7,575.6,217.2,575.8z M417.2,225.3c-46.1,1.6-177.4,5.9-196.9,4.7
		l-11.5-1.1l70.3-18.9V100.4h24.7h12.5h12.5V32.9h38.8v67.5h12.7h12.3h24.6V225.3z"/>
	<polygon class="st0" points="176,427.1 203.6,430.7 191.6,406.1 	"/>
	<polygon class="st0" points="190,480 203.6,458.1 176,454.8 	"/>
</g>
</svg>
