<?xml version="1.0" encoding="utf-8"?>
<!-- Generator: Adobe Illustrator 16.0.0, SVG Export Plug-In . SVG Version: 6.00 Build 0)  -->
<!DOCTYPE svg PUBLIC "-//W3C//DTD SVG 1.1//EN" "http://www.w3.org/Graphics/SVG/1.1/DTD/svg11.dtd">
<svg version="1.1" id="Capa_1" xmlns="http://www.w3.org/2000/svg" xmlns:xlink="http://www.w3.org/1999/xlink" x="0px" y="0px"
	 width="600px" height="600px" viewBox="0 0 600 600" enable-background="new 0 0 600 600" xml:space="preserve">
<g>
	<path fill="none" stroke="#000000" stroke-width="5" stroke-miterlimit="10" d="M301.136,103.327
		c-131.063,0-244.003,77.149-295.595,188.694c-1.389,3.254-1.389,7.439,0,10.689c52.056,111.543,164.531,188.696,295.595,188.696
		c131.07,0,244.005-77.153,295.594-188.696c1.396-3.25,1.396-7.436,0-10.689C545.141,180.476,432.206,103.327,301.136,103.327z
		 M301.136,431.454c-73.895,0-133.849-59.956-133.849-133.854c0-73.899,59.954-133.853,133.849-133.853
		c73.902,0,133.854,59.954,133.854,133.853C434.99,371.498,375.038,431.454,301.136,431.454z"/>
</g>
</svg>
