<?xml version="1.0" encoding="utf-8"?>
<!-- Generator: Adobe Illustrator 16.0.0, SVG Export Plug-In . SVG Version: 6.00 Build 0)  -->
<!DOCTYPE svg PUBLIC "-//W3C//DTD SVG 1.1//EN" "http://www.w3.org/Graphics/SVG/1.1/DTD/svg11.dtd">
<svg version="1.1" id="Слой_1" xmlns="http://www.w3.org/2000/svg" xmlns:xlink="http://www.w3.org/1999/xlink" x="0px" y="0px"
	 width="600px" height="600px" viewBox="0 0 600 600" enable-background="new 0 0 600 600" xml:space="preserve">
<g>
	<g id="Sandglass">
		<g>
			<path fill="#2B2B2B" d="M72.421,438.225v-5.762h70.234c17.833,0,34.294-4.389,46.915-11.521l87.792-51.029
				c6.309-3.568,14.54-5.762,23.321-5.762c8.77,0,17.283,2.193,23.318,5.762l87.792,51.029
				c12.348,7.133,28.809,11.521,46.907,11.521h70.233v5.762c0,9.328,11.806,17.009,26.338,17.009
				c14.541,0,26.338-7.681,26.338-17.009V210.513c0-9.328-11.797-17.01-26.338-17.01c-14.54,0-26.338,7.682-26.338,17.01v5.761
				H458.7c-18.099,0-34.295,4.39-46.907,11.523l-87.792,51.03c-6.318,3.566-14.267,5.761-23.318,5.761
				c-9.063,0-17.294-2.195-23.321-5.761l-87.792-51.03c-12.346-7.133-28.808-11.523-46.915-11.523H72.421v-5.761
				c0-9.328-11.797-17.01-26.338-17.01c-14.541,0-26.338,7.682-26.338,17.01v227.712c0,9.328,11.797,17.009,26.338,17.009
				C60.623,455.51,72.421,447.828,72.421,438.225z M72.421,398.443v-148.15h70.234c5.487,0,9.328,1.646,11.798,3.018l87.792,51.03
				c16.187,9.327,36.763,14.54,58.438,14.54c21.674,0,42.524-5.213,58.435-14.54l87.795-51.03c2.193-1.372,6.035-3.018,11.797-3.018
				h70.234v148.15h-70.234c-5.488,0-9.329-1.646-11.797-3.017l-87.795-51.029c-16.187-9.329-36.761-14.541-58.435-14.541
				c-21.674,0-42.251,5.212-58.438,14.541l-87.792,51.029c-2.196,1.37-6.037,3.017-11.798,3.017H72.421z"/>
		</g>
	</g>
</g>
<path fill="#2B2B2B" d="M151.434,274.437H97.935c-6.036,0-10.974,4.938-10.974,10.974v78.19c0,6.036,4.938,10.974,10.974,10.974
	h53.499c6.036,0,10.974-4.938,10.974-10.974v-78.19C162.408,279.375,157.195,274.437,151.434,274.437z M151.983,349.885
	c0,6.035-4.938,10.973-10.975,10.973h-32.922c-6.035,0-10.973-4.938-10.973-10.973v-50.756c0-6.036,4.938-10.974,10.973-10.974
	h32.922c6.037,0,10.975,4.938,10.975,10.974V349.885z"/>
<path fill="#2B2B2B" d="M499.038,274.437h-53.499c-6.035,0-10.973,4.938-10.973,10.974v78.19c0,6.036,4.938,10.974,10.973,10.974
	h53.499c6.035,0,10.976-4.938,10.976-10.974v-78.19C510.014,279.375,505.073,274.437,499.038,274.437z M499.863,349.885
	c0,6.035-4.938,10.973-10.976,10.973h-32.922c-6.035,0-10.973-4.938-10.973-10.973v-50.756c0-6.036,4.938-10.974,10.973-10.974
	h32.922c6.037,0,10.976,4.938,10.976,10.974V349.885z"/>
<path fill="#2B2B2B" d="M17.55,432.463h-6.31c-6.036,0-10.974-4.938-10.974-10.974V228.895c0-6.036,4.938-10.974,10.974-10.974h6.31
	c6.036,0,10.974,4.938,10.974,10.974v192.595C28.524,427.524,23.586,432.463,17.55,432.463z"/>
<path fill="#2B2B2B" d="M589.026,432.463h-6.309c-6.037,0-10.976-4.938-10.976-10.974V228.895c0-6.036,4.938-10.974,10.976-10.974
	h6.309c6.037,0,10.975,4.938,10.975,10.974v192.595C600,427.524,595.063,432.463,589.026,432.463z"/>
</svg>
