<?xml version="1.0" encoding="utf-8"?>
<!-- Generator: Adobe Illustrator 16.0.0, SVG Export Plug-In . SVG Version: 6.00 Build 0)  -->
<!DOCTYPE svg PUBLIC "-//W3C//DTD SVG 1.1//EN" "http://www.w3.org/Graphics/SVG/1.1/DTD/svg11.dtd">
<svg version="1.1" id="_x31_3" xmlns="http://www.w3.org/2000/svg" xmlns:xlink="http://www.w3.org/1999/xlink" x="0px" y="0px"
	 width="600px" height="600px" viewBox="0 0 600 600" enable-background="new 0 0 600 600" xml:space="preserve">
<g>
	<g>
		
			<linearGradient id="SVGID_1_" gradientUnits="userSpaceOnUse" x1="664.676" y1="-201.4458" x2="118.5313" y2="293.3255" gradientTransform="matrix(0.75 0 0 -0.75 2.525 330.0352)">
			<stop  offset="0" style="stop-color:#FEC053"/>
			<stop  offset="0.3273" style="stop-color:#F2203E"/>
			<stop  offset="0.6485" style="stop-color:#B729A8"/>
			<stop  offset="1" style="stop-color:#5342D6"/>
		</linearGradient>
		<path fill="url(#SVGID_1_)" d="M101.062,0.218H500.03c54.83,0,99.771,44.94,99.771,99.769v398.968
			c0,54.829-44.941,99.77-99.771,99.77H101.062c-54.829,0-99.879-44.94-99.879-99.77V100.097
			C1.183,45.158,46.123,0.218,101.062,0.218L101.062,0.218z"/>
	</g>
	<g>
		<path fill="#FFFFFF" d="M439.818,299.526c0-76.915-62.302-139.326-139.326-139.326c-76.915,0-139.327,62.301-139.327,139.326
			c0,76.915,62.302,139.325,139.327,139.325C377.406,438.852,439.818,376.441,439.818,299.526L439.818,299.526z M437.18,141.302
			c-12.418,0-22.415,10.108-22.415,22.414c0,12.417,9.997,22.416,22.415,22.416c12.306,0,22.415-9.999,22.415-22.416
			C459.595,151.41,449.486,141.302,437.18,141.302L437.18,141.302z M186.657,109.107h227.667c42.194,0,76.585,34.502,76.585,76.585
			V413.36c0,42.193-34.391,76.584-76.585,76.584H186.657c-42.083,0-76.585-34.391-76.585-76.584V185.692
			C110.072,143.609,144.574,109.107,186.657,109.107L186.657,109.107z M414.324,83.615H186.657
			c-56.148,0-102.077,45.929-102.077,102.077V413.36c0,56.258,45.929,102.077,102.077,102.077h227.667
			c56.259,0,102.078-45.819,102.078-102.077V185.692C516.403,129.544,470.583,83.615,414.324,83.615L414.324,83.615z
			 M190.064,299.526c0-60.983,49.445-110.428,110.428-110.428s110.428,49.445,110.428,110.428
			c0,60.982-49.445,110.317-110.428,110.317S190.064,360.509,190.064,299.526L190.064,299.526z"/>
	</g>
</g>
</svg>
