<svg xmlns="http://www.w3.org/2000/svg" xmlns:xlink="http://www.w3.org/1999/xlink" width="24px" height="23px">
								<path fill-rule="evenodd" fill="rgb(43, 43, 43)" d="M21.167,23.000 L18.789,23.000 C17.227,23.000 15.957,21.704 15.957,20.111 L15.957,19.565 C15.957,18.580 15.171,17.778 14.205,17.778 L9.794,17.778 C8.828,17.778 8.042,18.580 8.042,19.565 L8.042,20.111 C8.042,21.704 6.772,23.000 5.210,23.000 L2.832,23.000 C1.270,23.000 -0.000,21.704 -0.000,20.111 L-0.000,9.653 C-0.000,8.060 1.270,6.764 2.832,6.764 L11.459,6.764 L11.459,0.551 C11.459,0.247 11.701,-0.000 12.000,-0.000 C12.298,-0.000 12.540,0.247 12.540,0.551 L12.540,6.764 L21.168,6.764 C22.729,6.764 24.000,8.060 24.000,9.653 L24.000,20.111 C24.000,21.704 22.729,23.000 21.167,23.000 ZM22.919,9.653 C22.919,8.667 22.133,7.866 21.167,7.866 L2.832,7.866 C1.866,7.866 1.080,8.667 1.080,9.653 L1.080,20.111 C1.080,21.096 1.866,21.897 2.832,21.897 L5.210,21.897 C6.176,21.897 6.961,21.096 6.961,20.111 L6.961,19.565 C6.962,17.972 8.232,16.676 9.794,16.676 L14.205,16.676 C15.767,16.676 17.038,17.972 17.038,19.565 L17.038,20.111 C17.038,21.096 17.823,21.898 18.789,21.898 L21.167,21.898 C22.133,21.898 22.919,21.096 22.919,20.111 L22.919,9.653 ZM20.119,13.171 L19.064,13.171 C18.766,13.171 18.524,12.924 18.524,12.620 C18.524,12.315 18.766,12.069 19.064,12.069 L20.119,12.069 C20.417,12.069 20.659,12.315 20.659,12.620 C20.659,12.924 20.417,13.171 20.119,13.171 ZM18.119,12.142 C17.821,12.142 17.579,11.896 17.579,11.592 L17.579,10.516 C17.579,10.211 17.821,9.965 18.119,9.965 C18.418,9.965 18.659,10.211 18.659,10.516 L18.659,11.592 C18.659,11.896 18.418,12.142 18.119,12.142 ZM17.175,13.171 L16.120,13.171 C15.821,13.171 15.580,12.924 15.580,12.620 C15.580,12.315 15.821,12.069 16.120,12.069 L17.175,12.069 C17.473,12.069 17.715,12.315 17.715,12.620 C17.715,12.924 17.473,13.171 17.175,13.171 ZM18.119,13.097 C18.418,13.097 18.659,13.344 18.659,13.648 L18.659,14.724 C18.659,15.028 18.418,15.275 18.119,15.275 C17.821,15.275 17.579,15.028 17.579,14.724 L17.579,13.648 C17.579,13.344 17.821,13.097 18.119,13.097 ZM6.058,15.392 C4.559,15.392 3.340,14.148 3.340,12.620 C3.340,11.091 4.559,9.848 6.058,9.848 C7.556,9.848 8.775,11.091 8.775,12.620 C8.775,14.148 7.556,15.392 6.058,15.392 ZM6.058,10.950 C5.155,10.950 4.421,11.699 4.421,12.620 C4.421,13.541 5.155,14.289 6.058,14.289 C6.960,14.289 7.695,13.540 7.695,12.620 C7.695,11.699 6.960,10.950 6.058,10.950 Z"></path>
							</svg>